<svg width="21" height="18" viewBox="0 0 21 18" fill="none" xmlns="http://www.w3.org/2000/svg">
<path d="M18.4385 3.80359H15.0516L14.615 1.62066C14.5059 1.0748 14.0226 0.678589 13.4659 0.678589H6.92664C6.37 0.678589 5.88668 1.0748 5.77754 1.62066L5.34094 3.80359H1.9541C0.984844 3.80359 0.196289 4.59214 0.196289 5.5614V15.7177C0.196289 16.6869 0.984844 17.4755 1.9541 17.4755H18.4385C19.4077 17.4755 20.1963 16.6869 20.1963 15.7177V5.5614C20.1963 4.59214 19.4077 3.80359 18.4385 3.80359ZM6.92664 1.85046H13.4659L13.8566 3.80359H6.53602L6.92664 1.85046ZM19.0244 15.7177C19.0244 16.0407 18.7616 16.3036 18.4385 16.3036H1.9541C1.63102 16.3036 1.36816 16.0407 1.36816 15.7177V5.5614C1.36816 5.23832 1.63102 4.97546 1.9541 4.97546H18.4385C18.7616 4.97546 19.0244 5.23832 19.0244 5.5614V15.7177Z" fill="#1E7D14"/>
<path d="M10.1963 6.30359C7.80543 6.30359 5.86035 8.24867 5.86035 10.6395C5.86035 13.0304 7.80543 14.9755 10.1963 14.9755C12.5871 14.9755 14.5322 13.0304 14.5322 10.6395C14.5322 8.24867 12.5871 6.30359 10.1963 6.30359ZM10.1963 13.8036C8.4516 13.8036 7.03223 12.3842 7.03223 10.6395C7.03223 8.89488 8.4516 7.47546 10.1963 7.47546C11.941 7.47546 13.3604 8.89488 13.3604 10.6395C13.3604 12.3842 11.941 13.8036 10.1963 13.8036Z" fill="#1E7D14"/>
<path d="M5.19629 6.30359H3.32129C2.9977 6.30359 2.73535 6.56593 2.73535 6.88953C2.73535 7.21312 2.9977 7.47546 3.32129 7.47546H5.19629C5.51988 7.47546 5.78223 7.21312 5.78223 6.88953C5.78223 6.56593 5.51988 6.30359 5.19629 6.30359Z" fill="#1E7D14"/>
</svg>
