<svg width="54" height="72" viewBox="0 0 54 72" fill="none" xmlns="http://www.w3.org/2000/svg">
<g clip-path="url(#clip0)">
<path d="M4.57049 25.2312V33.6117H2.12851C1.76673 33.6117 1.40496 33.7919 1.22407 34.0623C0.95274 34.3326 0.862296 34.6931 0.95274 35.0535L3.30428 46.9484V70.8282C3.30428 71.459 3.84694 71.9997 4.48004 71.9997H50.2446C50.8777 71.9997 51.4203 71.459 51.4203 70.8282V46.9484L53.7719 35.0535C53.8623 34.6931 53.7719 34.3326 53.5005 34.0623C53.2292 33.7919 52.9579 33.6117 52.5961 33.6117H50.1541V27.3939C50.1541 24.9609 48.6166 22.7081 46.265 21.8971L50.4254 17.031C51.6917 15.4991 51.6917 13.2462 50.2446 11.8946C48.8879 10.4528 46.6268 10.3626 45.0893 11.5341C44.4562 10.9934 43.6422 10.7231 42.7377 10.7231C42.1046 4.77566 37.0398 0.270027 31.0705 -0.000311361C25.0108 -0.270649 19.5841 3.78442 18.137 9.64174H12.9818C12.3486 9.64174 11.806 10.1824 11.806 10.8132V17.4815L9.00223 14.688C8.82134 14.5078 8.45957 14.4177 8.18824 14.4177C7.82646 14.4177 7.55513 14.5078 7.37424 14.7782L2.58073 19.5541C2.39984 19.7344 2.21895 20.0948 2.21895 20.3651C2.21895 20.7256 2.30939 20.9959 2.58073 21.1762L5.38448 23.9696L4.93226 24.3301C4.66093 24.6004 4.57049 24.8708 4.57049 25.2312ZM19.765 19.1937L24.5585 23.9696H20.7599L15.9664 19.1937H19.765ZM28.6285 31.1787H35.864V33.6117H28.6285V31.1787ZM21.393 26.4027H26.277V33.6117H21.4835V26.4027H21.393ZM35.864 27.3939V28.8357H28.6285V26.4027H35.9544C35.9544 26.7631 35.864 27.0335 35.864 27.3939ZM12.9818 19.7344L17.323 24.0598H8.64045L12.9818 19.7344ZM19.0415 33.6117H7.01247V26.4027H19.0415V33.6117ZM49.1592 46.5879C49.1592 46.678 49.1592 46.7681 49.1592 46.8583V69.6568H5.74626V46.7681C5.74626 46.678 5.74626 46.5879 5.74626 46.4978L3.66605 36.0447H51.3299L49.1592 46.5879ZM47.893 27.3939V33.6117H38.306V27.3939C38.306 25.5016 39.8435 23.9696 41.7428 23.9696H44.5466C46.4459 23.9696 47.893 25.5016 47.893 27.3939ZM35.1405 17.031L37.0398 19.1937H28.719C28.0858 19.1937 27.5432 18.653 27.5432 18.0222C27.5432 17.3914 28.0858 16.8508 28.719 16.8508H34.9596C34.9596 16.8508 35.05 16.9409 35.1405 17.031ZM44.4562 14.0573C44.9084 14.5078 45.7224 14.5078 46.1746 14.0573L46.7172 13.5166C47.2599 12.9759 48.1643 12.9759 48.707 13.5166C49.2497 14.0573 49.3401 14.9584 48.7975 15.4991L43.5517 21.6267H42.2855L37.0398 15.4991C36.5876 14.9584 36.5876 14.0573 37.1302 13.5166C37.6729 12.9759 38.5773 12.9759 39.2104 13.5166L39.7531 14.0573C40.2053 14.5078 41.0193 14.5078 41.4715 14.0573L42.0142 13.5166C42.5568 12.9759 43.4613 12.9759 44.0944 13.5166L44.4562 14.0573ZM23.7446 4.86577C26.6388 2.43273 30.6183 1.71183 34.1456 3.06352C37.6729 4.41521 40.1149 7.65926 40.5671 11.3539C40.4766 11.3539 40.4766 11.444 40.3862 11.444C39.2104 10.5429 37.6729 10.3626 36.4067 10.9934C35.05 11.6242 34.236 12.8858 34.1456 14.3276H28.6285C26.6388 14.3276 25.0108 15.9496 25.0108 17.9321C25.0108 19.9146 26.6388 21.5366 28.6285 21.5366H39.0295L39.3913 21.9872C38.3964 22.4377 37.5824 23.0685 36.9493 23.9696H28.6285C28.4476 23.9696 28.1763 23.9696 27.9954 24.0598L21.393 17.4815V10.8132C21.393 10.2725 21.1217 9.91208 20.579 9.73185C21.2121 7.83949 22.2975 6.12735 23.7446 4.86577ZM14.248 11.9847H19.0415V16.7606H14.248V11.9847ZM5.02271 20.3651L8.18824 17.3013L10.0876 19.1937L7.01247 22.2575L5.02271 20.3651Z" fill="#FF655B"/>
<path d="M27.4527 56.4105C34.1455 56.4105 39.4817 51.0038 39.4817 44.4256V38.388H37.1302V44.4256C37.1302 49.7422 32.7889 54.0676 27.4527 54.0676C22.1165 54.0676 17.7752 49.7422 17.7752 44.4256V38.388H15.4237V44.4256C15.4237 51.0038 20.7599 56.4105 27.4527 56.4105Z" fill="#FF655B"/>
</g>
<defs>
<clipPath id="clip0">
<rect width="53" height="72" fill="white" transform="translate(0.952759)"/>
</clipPath>
</defs>
</svg>
