<svg width="51" height="68" viewBox="0 0 51 68" fill="none" xmlns="http://www.w3.org/2000/svg">
<g clip-path="url(#clip0)">
<path d="M12.5869 61.5433H6.19255C5.57088 61.5433 5.12683 61.993 5.12683 62.6225C5.12683 63.2521 5.57088 63.7017 6.19255 63.7017H12.5869C13.2085 63.7017 13.6526 63.2521 13.6526 62.6225C13.6526 61.993 13.2085 61.5433 12.5869 61.5433Z" fill="#FF655B"/>
<path d="M16.8497 61.5433H15.784C15.1623 61.5433 14.7183 61.993 14.7183 62.6225C14.7183 63.2521 15.1623 63.7017 15.784 63.7017H16.8497C17.4714 63.7017 17.9154 63.2521 17.9154 62.6225C17.9154 61.993 17.4714 61.5433 16.8497 61.5433Z" fill="#FF655B"/>
<path d="M31.8586 0.928589H6.28136C3.35063 0.928589 0.952759 3.35678 0.952759 6.32456V62.5326C0.952759 65.5004 3.35063 67.9286 6.28136 67.9286H31.8586C34.7893 67.9286 37.1872 65.5004 37.1872 62.5326V38.7004H35.0558V62.5326C35.0558 64.3313 33.6348 65.7702 31.8586 65.7702H6.28136C4.50516 65.7702 3.0842 64.3313 3.0842 62.5326V6.32456C3.0842 4.5259 4.50516 3.08698 6.28136 3.08698H9.65613L10.5442 7.58362C10.633 8.12322 11.0771 8.48295 11.61 8.48295H26.53C27.0629 8.48295 27.5069 8.12322 27.5957 7.58362L28.4838 3.08698H31.8586C33.6348 3.08698 35.0558 4.5259 35.0558 6.32456V19.9944H37.1872V6.32456C37.1872 3.35678 34.8782 0.928589 31.8586 0.928589ZM25.7307 6.32456H12.4981L11.8764 3.08698H26.3524L25.7307 6.32456Z" fill="#FF655B"/>
<path d="M48.7325 19.6346H21.5566C20.3133 19.6346 19.2476 20.7138 19.2476 22.0628V45.5353C19.2476 45.895 19.4252 46.1648 19.6916 46.3447C19.7804 46.4346 19.958 46.4346 20.0468 46.4346C20.2245 46.4346 20.4021 46.3447 20.5797 46.2548L25.3754 41.938H48.5548C49.7982 41.938 50.8639 40.8588 50.8639 39.5098V22.0628C50.9527 20.7138 49.9758 19.6346 48.7325 19.6346ZM39.2298 33.2145C39.2298 34.0239 39.0522 34.7434 38.6081 35.193C38.2529 35.7326 37.5424 36.0024 36.5655 36.1823V37.8011H35.2333V36.2722C34.8781 36.2722 34.4341 36.1823 34.0788 36.1823C33.7236 36.0924 33.2795 36.0924 32.9243 36.0024V34.6534C33.3683 34.7434 33.8124 34.8333 34.1676 34.9232C34.5229 35.0132 34.9669 35.0132 35.3222 35.0132C36.2103 35.0132 36.8319 34.9232 37.0984 34.6534C37.4536 34.3836 37.6312 34.0239 37.6312 33.4843V33.1246C37.6312 32.9447 37.6312 32.7648 37.5424 32.585C37.5424 32.4051 37.4536 32.3152 37.276 32.2252C37.1872 32.1353 37.0096 32.0454 36.8319 31.9554C36.6543 31.8655 36.3879 31.7756 36.0326 31.6857L34.8781 31.3259C34.4341 31.1461 33.99 31.0561 33.6348 30.8763C33.2795 30.6964 33.1019 30.5165 32.8355 30.2467C32.6579 29.9769 32.4802 29.7071 32.4802 29.3474C32.3914 28.9877 32.3914 28.6279 32.3914 28.0883V27.9984C32.3914 27.0991 32.569 26.3796 33.0131 25.9299C33.4571 25.3903 34.1676 25.1205 35.1445 25.0306V23.5018H36.4767V25.0306C36.8319 25.0306 37.0984 25.1205 37.4536 25.1205C37.8088 25.1205 38.0753 25.2105 38.4305 25.3004V26.6494C38.0753 26.5595 37.72 26.5595 37.276 26.4695C37.0096 26.1098 36.6543 26.1098 36.2103 26.1098C35.411 26.1098 34.8781 26.2897 34.5229 26.4695C34.1676 26.7393 34.0788 27.0991 34.0788 27.6387V27.9984C34.0788 28.1783 34.0788 28.4481 34.1676 28.538C34.1676 28.7179 34.2564 28.8078 34.3452 28.9877C34.4341 29.0776 34.6117 29.2575 34.7893 29.3474C34.9669 29.4373 35.2334 29.5273 35.4998 29.6172L36.6543 29.9769C37.1872 30.1568 37.6312 30.3367 37.9865 30.5165C38.3417 30.6964 38.6081 30.8763 38.7857 31.1461C38.9634 31.4159 39.141 31.6857 39.2298 31.9554C39.3186 32.3152 39.3186 32.6749 39.3186 33.1246V33.2145H39.2298Z" fill="#FF655B"/>
</g>
<defs>
<clipPath id="clip0">
<rect width="50" height="67" fill="white" transform="translate(0.952759 0.928589)"/>
</clipPath>
</defs>
</svg>
