<svg width="73" height="68" viewBox="0 0 73 68" fill="none" xmlns="http://www.w3.org/2000/svg">
<path d="M56.1339 10.529H56.2284C56.3229 10.529 56.3229 10.529 56.4173 10.529C57.8347 10.529 58.9685 11.7362 58.9685 13.1292C58.9685 13.7792 59.5355 14.2435 60.1024 14.2435C60.7638 14.2435 61.2362 13.6863 61.2362 13.1292C61.2362 10.8076 59.6299 8.85754 57.3622 8.39323V7.27889C57.3622 6.62886 56.7953 6.16455 56.2284 6.16455C55.5669 6.16455 55.0945 6.72172 55.0945 7.27889V8.39323C52.7323 9.04326 51.126 11.2719 51.504 13.6863C51.8819 16.1007 53.9607 17.8651 56.4173 17.8651C57.8347 17.8651 59.063 18.9795 59.063 20.4652C59.063 21.8582 57.9292 23.0654 56.4173 23.0654C55 23.0654 53.7717 21.951 53.7717 20.4652C53.7717 19.8152 53.2047 19.3509 52.6378 19.3509C51.9764 19.3509 51.504 19.9081 51.504 20.4652C51.504 22.6939 53.0158 24.5512 55.189 25.1083V26.4084C55.189 27.0584 55.7559 27.5227 56.3229 27.5227C56.9843 27.5227 57.4567 26.9656 57.4567 26.4084V25.2012C59.9134 24.644 61.6142 22.4153 61.3307 19.9081C61.0473 17.4008 58.9685 15.5436 56.4173 15.5436C55 15.5436 53.8662 14.4292 53.7717 13.1292C53.6772 11.8291 54.7166 10.6219 56.1339 10.529Z" fill="#FF655B"/>
<path d="M56.4173 0.5C49.2362 0.5 43.0945 5.14308 40.8268 11.2719H11.8189C11.1575 11.2719 10.685 11.8291 10.685 12.4791L10.4016 52.6882H2.18111C1.51969 52.6882 0.952759 53.1525 0.952759 53.8026V58.91C0.952759 63.7388 4.82678 67.6389 9.74016 67.9175H45.7402C46.0236 67.9175 46.1181 67.9175 46.3071 67.9175C51.315 67.9175 55.4724 63.9245 55.4724 58.91V33.0944C55.7559 33.0944 56.0394 33.0944 56.4173 33.0944C65.5827 33.0944 72.9528 25.7584 72.9528 16.8436C72.9528 7.83607 65.4882 0.5 56.4173 0.5ZM10.1181 65.596C6.33859 65.596 3.31496 62.6244 3.22048 58.91V55.0098H37.0472V58.91C37.0472 61.3244 37.9921 63.553 39.7874 65.3174C39.8819 65.4103 40.0709 65.5031 40.1654 65.6889H10.1181V65.596ZM53.1102 58.8171C53.1102 62.5316 50.0866 65.5031 46.3071 65.5031C42.5276 65.5031 39.5039 62.5316 39.4095 58.8171V53.7097C39.4095 53.4311 39.315 53.1525 39.126 52.9668C38.937 52.7811 38.6535 52.6882 38.3701 52.6882H12.7638L13.0472 13.5935H40.1654C39.9764 14.615 39.8819 15.7293 39.8819 16.7508C39.8819 18.9795 40.3543 21.2081 41.2992 23.344H30.2441C29.5827 23.344 29.1102 23.9011 29.1102 24.4583C29.1102 25.1083 29.6772 25.5726 30.2441 25.5726H42.5276C44.8898 29.2871 48.7638 31.8872 53.2047 32.723V58.8171H53.1102ZM56.4173 30.7729C48.5748 30.7729 42.1496 24.5512 42.1496 16.7508C42.1496 9.04327 48.4803 2.72868 56.4173 2.72868C64.2598 2.72868 70.685 8.95041 70.685 16.7508C70.5906 24.5512 64.2598 30.7729 56.4173 30.7729Z" fill="#FF655B"/>
<path d="M22.685 30.9586C20.6063 30.9586 18.9055 32.5373 18.9055 34.4874C18.9055 36.4375 20.6063 38.0161 22.685 38.0161C24.7638 38.0161 26.4646 36.4375 26.4646 34.4874C26.4646 32.5373 24.7638 30.9586 22.685 30.9586ZM22.685 35.7874C21.9291 35.7874 21.2677 35.2303 21.2677 34.4874C21.2677 33.8373 21.9291 33.1873 22.685 33.1873C23.4409 33.1873 24.1024 33.7445 24.1024 34.4874C24.1024 35.1374 23.5354 35.7874 22.685 35.7874Z" fill="#FF655B"/>
<path d="M29.0157 34.4874C29.0157 35.1374 29.5827 35.6017 30.1496 35.6017H45.7402C46.4016 35.6017 46.874 35.0445 46.874 34.4874C46.874 33.8373 46.3071 33.373 45.7402 33.373H30.2441C29.5827 33.373 29.0157 33.8373 29.0157 34.4874Z" fill="#FF655B"/>
<path d="M22.685 20.9296C20.6063 20.9296 18.9055 22.5082 18.9055 24.4583C18.9055 26.4084 20.6063 27.9871 22.685 27.9871C24.7638 27.9871 26.4646 26.4084 26.4646 24.4583C26.4646 22.6011 24.7638 20.9296 22.685 20.9296ZM22.685 25.7584C21.9291 25.7584 21.2677 25.2012 21.2677 24.4583C21.2677 23.8083 21.9291 23.1582 22.685 23.1582C23.4409 23.1582 24.1024 23.7154 24.1024 24.4583C24.1024 25.2012 23.5354 25.7584 22.685 25.7584Z" fill="#FF655B"/>
<path d="M22.685 40.8948C20.6063 40.8948 18.9055 42.4735 18.9055 44.4235C18.9055 46.3736 20.6063 47.9523 22.685 47.9523C24.7638 47.9523 26.4646 46.3736 26.4646 44.4235C26.4646 42.4735 24.7638 40.8948 22.685 40.8948ZM22.685 45.7236C21.9291 45.7236 21.2677 45.1664 21.2677 44.4235C21.2677 43.7735 21.9291 43.1235 22.685 43.1235C23.4409 43.1235 24.1024 43.6806 24.1024 44.4235C24.1024 45.1664 23.5354 45.7236 22.685 45.7236Z" fill="#FF655B"/>
<path d="M45.7402 43.4021H30.2441C29.5827 43.4021 29.1102 43.9592 29.1102 44.5164C29.1102 45.1664 29.6772 45.6307 30.2441 45.6307H45.8346C46.4961 45.6307 46.9685 45.0736 46.9685 44.5164C46.9685 43.8664 46.4016 43.4021 45.7402 43.4021Z" fill="#FF655B"/>
</svg>
