<svg width="126" height="116" viewBox="0 0 126 116" fill="none" xmlns="http://www.w3.org/2000/svg">
<path d="M5.91443 94.9634C5.91443 106.601 15.4224 116.075 27.1016 116.075H100.021C111.701 116.075 121.209 106.601 121.209 94.9634C121.209 83.3261 111.701 73.8521 100.021 73.8521H72.246C72.246 74.4489 70.8984 78.1042 66.4064 77.8804C61.6149 77.582 60.8663 74.4489 60.7914 73.8521H27.1016C15.4224 73.8521 5.91443 83.3261 5.91443 94.9634Z" fill="#DC0C1C"/>
<path d="M104.364 48.8618C104.364 47.8174 104.364 47.146 104.364 47.146C104.364 46.1762 103.765 45.7286 102.642 45.7286C101.144 45.7286 99.123 46.6984 99.123 48.8618V63.7068C99.123 66.6907 100.171 67.8097 103.316 67.8097C103.316 67.8097 104.888 67.6605 104.888 66.7653C104.888 65.8701 104.888 54.9042 104.888 54.8296C104.888 52.8155 107.882 51.3981 109.979 50.6521C110.652 50.4283 110.952 49.7569 110.952 49.1601C110.952 47.8174 110.578 45.9524 109.08 45.9524C108.257 46.1016 106.684 46.4746 104.364 48.8618ZM11.0802 35.5833C13.1016 35.5833 15.4225 36.9261 15.4225 41.1036C15.4225 45.8032 12.5027 49.1601 6.4385 50.4283C6.13904 48.3396 6.06417 46.3254 6.06417 44.5351C6.06417 38.4926 7.93583 35.5833 11.0802 35.5833ZM0 44.0875C0 51.9203 1.34759 62.8116 1.87166 65.9447C2.32086 68.7794 2.91979 70.346 6.06417 70.346C7.86096 70.346 8.60963 70.1222 8.60963 69.0032L6.96257 55.874C9.13369 55.501 21.262 53.9344 21.262 39.9846C21.262 35.8817 19.016 29.7646 11.5294 29.7646C5.61497 29.8392 0 33.4945 0 44.0875ZM68.7273 54.6804C68.7273 51.9949 69.3262 50.5029 71.5722 50.3537C73.369 50.2045 75.016 51.4727 75.016 53.636C75.016 58.3357 72.9198 61.3942 68.7273 61.618V54.6804ZM71.1979 45.1319C66.7059 45.1319 63.7861 47.4444 63.7861 54.755V71.6888C63.7861 73.7029 64.3102 74.9711 66.7807 74.9711C68.2032 74.9711 68.7273 74.8219 68.7273 73.9267V66.4669C70.4492 66.1685 79.9572 64.9003 79.9572 53.263C80.0321 50.5029 78.3102 45.1319 71.1979 45.1319ZM22.1604 63.1846C20.9626 63.1846 20.5134 62.1402 20.5134 61.0212C20.5134 57.6643 24.8556 56.8437 26.7273 56.8437H26.877C26.877 61.8418 23.7326 63.1846 22.1604 63.1846ZM25.1551 45.5794C21.9358 45.5794 21.5615 47.2206 21.4866 48.0412C21.4118 48.8618 22.0107 50.3537 23.0588 50.2791C23.2086 50.2791 23.6578 50.2791 23.7326 50.2791C25.3048 50.2791 26.9519 50.6521 26.877 52.2187C26.877 52.5171 26.877 53.1138 26.877 53.1138C26.877 53.1138 14.6738 52.8154 14.6738 61.1704C14.6738 64.3036 16.9947 67.7351 20.738 67.7351C23.2834 67.7351 25.754 65.9447 26.7273 63.5576C26.5775 63.9306 26.5027 64.6019 26.5027 64.9003C26.5027 67.4367 28.2246 67.8843 30.6952 67.8843C31.6685 67.8843 31.893 67.3621 31.893 66.2431V52.9646C31.8182 46.6984 28 45.5794 25.1551 45.5794ZM40.1283 67.1383C40.1283 66.7653 40.1283 55.7248 40.1283 55.2026C40.1283 53.4122 41.2513 52.1441 42.8984 52.1441C44.4706 52.1441 45.0695 53.0392 45.0695 54.9788V62.4386C45.0695 64.0798 45.5187 66.6907 48.9626 66.6907C49.861 66.6907 50.9091 66.2431 50.9091 65.1241V55.0534C50.9091 52.8901 52.3316 52.2187 53.8289 52.2187C55.4011 52.2187 55.7754 53.4868 55.7754 54.9042V62.6624C55.7754 65.5717 56.5241 67.5859 59.7433 67.5859C61.1658 67.5859 61.6898 67.4367 61.6898 66.3923V54.0836C61.6898 52.5171 61.5401 46.6238 55.1765 46.6238C53.3797 46.6238 51.6578 47.146 49.861 49.4585C49.4118 48.3396 47.615 46.6238 44.4706 46.6238C43.123 46.6238 40.877 47.2206 39.3797 49.1601V48.0412C39.3797 46.4746 39.0053 45.654 37.8075 45.654C36.4599 45.654 34.139 46.773 34.139 49.0109V63.3338C34.139 66.0193 35.4866 68.4065 38.5562 68.481C39.754 68.4065 40.1283 67.9589 40.1283 67.1383ZM125.401 63.1846C125.401 57.2167 117.39 54.6804 117.39 51.6219C117.39 50.9505 117.84 50.0553 118.963 50.0553C121.658 50.0553 120.909 53.3376 123.005 53.3376C124.128 53.3376 126.075 52.7409 126.075 51.5473C126.075 47.6682 121.957 45.281 118.813 45.281C116.193 45.281 112.374 46.5492 112.15 51.1743C111.925 58.0373 119.861 60.1261 119.861 62.8116C119.861 64.1544 118.813 64.3782 117.765 64.3782C114.62 64.3782 113.123 60.7974 111.626 60.7974C110.652 60.7974 109.529 62.364 109.529 63.9306C109.529 66.1685 113.572 69.3762 118.139 69.3762C121.882 69.3016 125.401 67.0637 125.401 63.1846ZM89.4652 50.1299C87.1444 50.4283 86.7701 54.009 86.7701 55.0534L92.0107 53.263C92.0107 52.5171 91.4866 50.1299 89.4652 50.1299ZM81.4546 58.4849C81.4546 46.4746 88.1177 45.5048 89.6898 45.5048C94.7059 45.5048 96.9519 50.4283 96.9519 53.7852C96.9519 55.2026 96.5775 55.874 94.4064 56.7691L86.9198 59.4547C86.9198 61.8418 87.8182 62.1402 88.9412 62.1402C91.4866 62.1402 93.9572 58.8579 95.4545 58.8579C96.2032 58.8579 97.0267 60.1261 97.0267 60.9466C97.0267 63.6322 92.6096 67.0637 88.1925 67.0637C84.3743 67.0637 81.4546 63.856 81.4546 58.4849Z" fill="#00A6AA"/>
<path d="M96.5775 27.6013C97.7005 27.2283 99.5721 26.1093 102.192 26.1093C103.615 26.1093 104.064 26.0347 104.064 25.3634C104.064 25.1396 104.064 24.3936 104.064 24.1698C104.064 22.454 103.615 22.5286 103.465 22.5286C103.016 22.5286 96.3529 22.9016 96.3529 26.7061C96.278 27.0045 96.278 27.7505 96.5775 27.6013ZM68.877 10.2945C68.877 10.8167 71.2727 13.3531 71.3475 13.5023C71.8716 13.9499 74.1925 14.3228 74.8663 14.3228C75.016 14.3228 75.1657 14.2482 75.0909 14.1736C75.0909 13.0547 71.647 9.84696 70.1497 9.69776C69.9251 9.69776 68.877 9.92156 68.877 10.2945ZM98.2245 11.4135C99.4973 10.2199 100.92 8.95178 100.92 8.2804C100.92 7.60902 98.9732 6.26625 98.6737 6.26625C97.2513 6.26625 93.7326 11.1151 93.7326 12.0103C93.7326 13.1293 94.2566 14.1736 95.0053 14.3974C95.155 14.3974 96.6524 12.9801 98.2245 11.4135ZM81.8288 6.19165C81.6042 5.59487 81.3796 1.04439 81.3796 0.671396C81.3796 1.31279e-05 81.6791 -0.074585 81.9786 -0.074585C83.2513 -0.074585 85.1229 1.26818 85.1229 1.79037C85.1229 3.87911 85.3475 6.63924 85.3475 7.68361C85.3475 7.90741 84.9732 7.98201 84.6737 7.98201C83.6256 7.98201 81.9786 6.71384 81.8288 6.19165Z" fill="white"/>
<path d="M77.6364 28.6457C79.5081 29.6901 80.7059 31.1074 80.7059 32.7486C80.7059 33.047 80.5562 33.3454 80.3316 33.3454C77.861 33.3454 77.6364 28.6457 77.6364 28.6457ZM80.107 42.5209C76.3637 42.5209 65.7327 33.047 65.7327 27.6759C65.7327 25.1396 67.4546 24.3936 68.9519 24.3936C70.599 24.3936 74.492 26.6315 74.492 26.6315C74.492 26.6315 75.091 36.7769 78.984 36.7769C80.4065 36.7769 83.0268 34.4643 83.0268 32.5994C83.0268 29.5409 80.6311 27.1537 77.9359 24.8412C78.0856 23.6476 78.8343 21.5589 80.107 19.9923C81.23 18.5749 82.8771 17.3814 84.8236 17.3814C86.7701 17.3814 88.1177 19.4701 88.1177 22.827C88.2674 30.8836 83.476 42.4463 80.107 42.5209ZM93.8075 22.2302C93.7327 17.829 91.337 11.4881 85.3476 11.5627C82.1284 11.6373 78.9091 14.3975 76.8877 17.829C75.9894 19.4701 75.3156 21.1859 75.0161 22.827C71.9466 20.8875 68.6525 19.7685 66.4813 19.7685C60.5669 19.7685 59.5936 24.2444 59.5936 26.7061C59.5936 35.8071 76.6632 45.8778 81.9038 45.8778C86.0963 45.8032 93.9573 32.8978 93.8075 22.2302Z" fill="#FFDD00"/>
<path d="M27.0267 91.0097H23.4331V101.752H21.4117V91.0097H17.7433V89.1447H27.0267V91.0097Z" fill="white"/>
<path d="M23.6578 101.901H21.1872V91.1588H17.5936V88.9209H27.2514V91.1588H23.6578V101.901ZM21.5615 101.528H23.2835V90.7859H26.8771V89.2939H17.968V90.7859H21.5615V101.528Z" fill="white"/>
<path d="M29.1229 89.1447H31.2192V90.9351H31.294C32.1176 89.9653 33.4652 88.6971 36.0106 88.6971C40.0534 88.6971 42.3743 91.9795 42.3743 95.411C42.3743 99.2155 39.6042 102.199 35.9358 102.199C33.7646 102.199 32.1924 101.155 31.294 100.036H31.2192V107.869H29.1229V89.1447ZM35.5614 90.5621C33.016 90.5621 30.9946 92.5017 30.9946 95.5602C30.9946 98.3949 33.1657 100.409 35.5614 100.409C38.6309 100.409 40.1283 97.9473 40.1283 95.4856C40.2031 93.0238 38.6309 90.5621 35.5614 90.5621Z" fill="white"/>
<path d="M31.369 108.093H28.8984V88.9955H31.369V90.562C32.1926 89.6669 33.615 88.6225 36.0107 88.6225C40.2781 88.6225 42.5241 92.2032 42.5241 95.4855C42.5241 99.4392 39.6792 102.423 35.9359 102.423C34.2139 102.423 32.5669 101.752 31.369 100.558V108.093ZM29.2728 107.72H30.9947V99.8868H31.2942L31.369 99.9614C31.8931 100.558 33.3904 102.05 35.861 102.05C39.4546 102.05 42.0749 99.2154 42.0749 95.4855C42.0749 92.3524 39.9038 88.9955 35.9359 88.9955C33.4653 88.9955 32.1926 90.1145 31.369 91.1588L31.2942 91.2334H30.9947V89.4431H29.2728V107.72ZM35.6364 100.558C32.9412 100.558 30.845 98.3203 30.845 95.5601C30.845 92.5762 32.8664 90.4128 35.5615 90.4128C38.8557 90.4128 40.353 93.0238 40.353 95.4855C40.353 97.9473 38.7059 100.558 35.6364 100.558ZM35.5615 90.7112C33.0161 90.7112 31.2193 92.7254 31.2193 95.4855C31.2193 98.0965 33.1658 100.111 35.6364 100.111C38.5562 100.111 40.0535 97.7235 40.0535 95.4109C39.9786 93.173 38.6311 90.7112 35.5615 90.7112Z" fill="white"/>
<path d="M47.6899 107.943H45.6685L47.9894 101.752L43.3477 89.1447H45.5188L48.214 96.4553C48.4386 97.0521 48.9626 98.3949 49.0375 99.1409H49.1124C49.4118 98.2457 49.6364 97.4251 50.0108 96.4553L52.6311 89.1447H54.6525L47.6899 107.943Z" fill="white"/>
<path d="M47.8396 108.093H45.4439L47.8396 101.752L43.123 88.9955H45.6685L48.3637 96.4553C48.5134 96.9029 48.8878 97.8727 49.1123 98.6186L49.1872 98.4694C49.4118 97.7981 49.6364 97.2013 49.861 96.4553L52.5562 88.9955H55.0268L47.8396 108.093ZM45.968 107.72H47.615L54.4279 89.3685H52.7059L50.0856 96.6045C49.861 97.2759 49.6364 97.9473 49.4118 98.544L49.1872 99.3646H48.8129V99.2154C48.6632 98.544 48.214 97.1267 47.9894 96.6045L45.369 89.3685H43.6471L48.214 101.752L45.968 107.72Z" fill="white"/>
<path d="M67.9786 92.427H65.6578C65.1337 91.3827 64.0856 90.5621 62.2888 90.5621C59.8931 90.5621 57.7968 92.2032 57.7968 95.4856C57.7968 98.3203 59.7433 100.409 62.4385 100.409C64.3851 100.409 65.3583 99.3647 65.8824 98.3203H68.2032C67.5294 100.185 65.8824 102.199 62.4385 102.199C58.5455 102.199 55.7006 99.4393 55.7006 95.411C55.7006 91.7557 58.3209 88.7717 62.3637 88.7717C65.8824 88.7717 67.6043 90.9351 67.9786 92.427Z" fill="white"/>
<path d="M62.4385 102.349C58.3957 102.349 55.476 99.4392 55.476 95.4109C55.476 91.4572 58.3209 88.5479 62.2888 88.5479C65.8075 88.5479 67.6792 90.5621 68.1284 92.3524L68.2032 92.5762H65.508L65.4332 92.5016C64.9091 91.3826 63.7861 90.7859 62.2139 90.7859C60.2674 90.7859 57.9465 92.054 57.9465 95.4855C57.9465 98.2457 59.8182 100.185 62.3637 100.185C63.9358 100.185 64.984 99.5138 65.6578 98.2457L65.7326 98.1711H68.4278L68.353 98.3949C67.9038 99.5884 66.4813 102.349 62.4385 102.349ZM62.2888 88.9209C58.5455 88.9209 55.8503 91.681 55.8503 95.4109C55.8503 99.29 58.5455 101.976 62.4385 101.976C66.0321 101.976 67.4546 99.663 67.9786 98.3949H66.0321C65.3583 99.7376 64.1604 100.484 62.5134 100.484C59.7433 100.484 57.7219 98.3203 57.7219 95.4109C57.7219 91.9048 60.0428 90.3383 62.3637 90.3383C64.0107 90.3383 65.2086 91.0096 65.8824 92.2032H67.8289C67.1551 90.6367 65.4332 88.9209 62.2888 88.9209Z" fill="white"/>
<path d="M70.8235 89.1447H72.9197V94.8142C72.9197 95.7839 72.9197 97.6489 72.8449 98.6933H72.9197C73.2941 98.0965 73.893 97.2759 74.7165 96.2315L80.1069 89.1447H81.9786V101.752H79.8823V96.0823C79.8823 95.1126 79.8823 93.2476 79.9572 92.2032H79.8823C79.508 92.8 78.9091 93.6206 78.0855 94.665L72.6951 101.752H70.8235V89.1447Z" fill="white"/>
<path d="M82.1283 101.901H79.6577V96.0077C79.6577 95.2617 79.6577 93.8444 79.7326 92.8C79.3582 93.3222 78.909 93.9936 78.2352 94.8141L72.77 101.976H70.5989V88.9955H73.0695V94.8887C73.0695 95.6347 73.0695 97.0521 72.9946 98.0965C73.3689 97.5743 73.8181 96.9029 74.4919 96.0823L79.9572 88.9209H82.1283V101.901ZM80.032 101.528H81.7539V89.2939H80.1818L74.8663 96.3061C74.0427 97.3505 73.4438 98.1711 73.1443 98.7678L73.0695 98.8424H72.6203V98.6186C72.6951 97.5743 72.6951 95.7093 72.6951 94.7396V89.2193H70.9732V101.453H72.6203L77.9358 94.4412C78.7593 93.3968 79.3582 92.5762 79.6577 91.9794L79.7326 91.9048H80.1069V92.1286C80.032 93.0984 80.032 95.0379 80.032 96.0077V101.528Z" fill="white"/>
<path d="M85.5723 89.1447H87.6685V94.8888L93.583 89.1447H96.1284L90.0642 95.038L96.2782 101.752H93.583L87.6685 95.2617V101.752H85.5723V89.1447Z" fill="white"/>
<path d="M96.7273 101.901H93.5081L87.8182 95.7093V101.901H85.3477V88.9209H87.8182V94.4412L93.4332 88.9209H96.5027L90.2888 94.9633L96.7273 101.901ZM93.6578 101.528H95.8289L89.7648 95.0379L95.6043 89.3685H93.583L87.7434 95.1125L93.6578 101.528ZM85.7969 101.528H87.5188V89.2939H85.7969V101.528Z" fill="white"/>
<path d="M98.2246 89.1447H100.321V94.8142C100.321 95.7839 100.321 97.6489 100.246 98.6933H100.321C100.695 98.0965 101.294 97.2759 102.118 96.2315L107.508 89.1447H109.38V101.752H107.283V96.0823C107.283 95.1126 107.283 93.2476 107.358 92.2032H107.283C106.909 92.8 106.31 93.6206 105.487 94.665L100.096 101.752H98.2246V89.1447Z" fill="white"/>
<path d="M109.529 101.901H107.059V96.0077C107.059 95.1871 107.059 93.7698 107.134 92.8C106.759 93.3222 106.31 93.9936 105.636 94.8141L100.171 101.976H98.0748V88.9955H100.545V94.8887C100.545 95.6347 100.545 97.0521 100.471 98.0965C100.845 97.5743 101.294 96.9029 101.968 96.0823L107.433 88.9209H109.604V101.901H109.529ZM107.433 101.528H109.155V89.2939H107.583L102.267 96.3061C101.444 97.3505 100.845 98.1711 100.545 98.7678L100.471 98.8424H100.096V98.6186C100.171 97.5743 100.171 95.7093 100.171 94.7396V89.2193H98.4492V101.453H100.021L105.337 94.4412C106.16 93.3968 106.759 92.5762 107.059 91.9794L107.134 91.9048H107.508V92.1286C107.433 93.0984 107.433 95.0379 107.433 96.0077V101.528Z" fill="white"/>
</svg>
